<svg width="126" height="126" viewBox="0 0 126 126" fill="none" xmlns="http://www.w3.org/2000/svg">
<path d="M51.9572 0.887171C54.2614 0.628076 56.5444 1.52679 58.0536 3.28707L72.3353 19.9444C88.7362 23.9974 98.2389 36.3472 103.495 51.7643C108.91 67.6505 110.25 87.8184 110.25 108.5C110.25 112.366 107.116 115.5 103.25 115.5H37.9836C34.2674 115.5 31.1989 112.596 30.9942 108.885C30.8116 105.574 31.5735 99.8285 33.895 93.96L33.9377 93.8525C27.345 97.3913 20.0284 96.5436 14.597 92.6765C7.99624 87.9769 4.32606 78.777 8.5193 69.6916C11.5431 63.14 14.8021 59.6707 17.2675 57.0469C19.5704 54.596 20.5301 53.518 21.209 50.8022C25.3254 34.3365 33.7941 24.8512 42.8887 20.5224C42.7572 18.6465 42.8642 16.8393 43.0943 15.1985C43.667 11.1144 45.0928 7.34015 46.5461 4.58104C47.6267 2.52954 49.6531 1.14627 51.9572 0.887171Z" fill="#16151B"/>
<path fill-rule="evenodd" clip-rule="evenodd" d="M68.5487 26.2823L52.7394 7.84326C50.451 12.1878 48.2324 19.8556 51.4221 25.3909C49.8739 25.5288 48.3944 25.7906 47.25 26.2499C39.9488 29.1799 31.9375 36.7499 28 52.4999C26.8599 57.0605 24.8078 59.2444 22.3688 61.8401C20.0682 64.2886 17.4234 67.1034 14.875 72.6249C9.62499 83.9999 23.7936 95.3749 34.125 85.0434C39.9335 79.235 45.0106 76.8371 49.2733 74.8239C55.4085 71.9264 59.8564 69.8257 62.3689 59.4999C63.5642 64.3164 63.0861 75.6834 51.6107 82.6191C40.1353 89.5549 37.7445 104.165 37.9836 108.5H103.25C103.25 67.3455 97.8013 31.7883 68.5487 26.2823Z" fill="white"/>
<path d="M49 52.5C51.8995 52.5 54.25 50.1495 54.25 47.25C54.25 44.3505 51.8995 42 49 42C46.1005 42 43.75 44.3505 43.75 47.25C43.75 50.1495 46.1005 52.5 49 52.5Z" fill="#16151B"/>
</svg>
